HIERARCHY
ROOT hips
{
  OFFSET 4.514983404067499e-9 10.105397940993303 1.318478203070619
  CHANNELS 6 Xposition Yposition Zposition Yrotation Xrotation Zrotation
  JOINT spine
  {
    OFFSET -3.891297943093837e-9 0.5743022203102706 0
    CHANNELS 3 Yrotation Xrotation Zrotation
    JOINT chest
    {
      OFFSET 0 1.2550312016247926 0
      CHANNELS 3 Yrotation Xrotation Zrotation
      JOINT upperChest
      {
        OFFSET 0 1.2059856050120283 0
        CHANNELS 3 Yrotation Xrotation Zrotation
        JOINT neck
        {
          OFFSET 0 1.5290392449770056 0
          CHANNELS 3 Yrotation Xrotation Zrotation
          JOINT head
          {
            OFFSET 0 0.8186276690878121 0
            CHANNELS 3 Yrotation Xrotation Zrotation
            JOINT leftEye
            {
              OFFSET 0.4540883942785781 -0.2684596961258452 0.6133497327236779
              CHANNELS 3 Yrotation Xrotation Zrotation
              End Site
              {
                OFFSET 0.4540883942785781 -0.2684596961258452 0.6133497327236779
              }
            }
            JOINT rightEye
            {
              OFFSET -0.4540889229417456 -0.26846010916843954 0.6133525398671689
              CHANNELS 3 Yrotation Xrotation Zrotation
              End Site
              {
                OFFSET -0.4540889229417456 -0.26846010916843954 0.6133525398671689
              }
            }
          }
        }
        JOINT leftShoulder
        {
          OFFSET 1.1700010731725468 -0.4176065950681176 0
          CHANNELS 3 Yrotation Xrotation Zrotation
          JOINT leftUpperArm
          {
            OFFSET 1.1803911524554955 0 0
            CHANNELS 3 Yrotation Xrotation Zrotation
            JOINT leftLowerArm
            {
              OFFSET 2.4406171707858904 0 0
              CHANNELS 3 Yrotation Xrotation Zrotation
              JOINT leftHand
              {
                OFFSET 2.3832177068873874 0 0
                CHANNELS 3 Yrotation Xrotation Zrotation
                JOINT leftIndexProximal
                {
                  OFFSET 0.7310175006235151 0.08192774217833776 0.20404791572985242
                  CHANNELS 3 Yrotation Xrotation Zrotation
                  JOINT leftIndexIntermediate
                  {
                    OFFSET 0.3688845439429529 -0.010662034455094949 -0.014226011560394963
                    CHANNELS 3 Yrotation Xrotation Zrotation
                    JOINT leftIndexDistal
                    {
                      OFFSET 0.2271119941018298 -0.007897656478952575 -0.007580683836364496
                      CHANNELS 3 Yrotation Xrotation Zrotation
                      End Site
                      {
                        OFFSET 0.2271119941018298 -0.007897656478952575 -0.007580683836364496
                      }
                    }
                  }
                }
                JOINT leftLittleProximal
                {
                  OFFSET 0.678269929308182 0.08192620621401336 -0.323876516389586
                  CHANNELS 3 Yrotation Xrotation Zrotation
                  JOINT leftLittleIntermediate
                  {
                    OFFSET 0.34904545821382604 -0.0000017106393073174075 8.629360392919949e-9
                    CHANNELS 3 Yrotation Xrotation Zrotation
                    JOINT leftLittleDistal
                    {
                      OFFSET 0.2011060672849896 0.0031247840072243793 0.0038660318003989197
                      CHANNELS 3 Yrotation Xrotation Zrotation
                      End Site
                      {
                        OFFSET 0.2011060672849896 0.0031247840072243793 0.0038660318003989197
                      }
                    }
                  }
                }
                JOINT leftMiddleProximal
                {
                  OFFSET 0.7368181082522638 0.0819260272939426 0.02272335773438093
                  CHANNELS 3 Yrotation Xrotation Zrotation
                  JOINT leftMiddleIntermediate
                  {
                    OFFSET 0.41136739116025356 -0.0000015892429323649537 5.27860346960507e-8
                    CHANNELS 3 Yrotation Xrotation Zrotation
                    JOINT leftMiddleDistal
                    {
                      OFFSET 0.25378150303820757 -0.0000015332469289752737 1.3442958385345705e-8
                      CHANNELS 3 Yrotation Xrotation Zrotation
                      End Site
                      {
                        OFFSET 0.25378150303820757 -0.0000015332469289752737 1.3442958385345705e-8
                      }
                    }
                  }
                }
                JOINT leftRingProximal
                {
                  OFFSET 0.7284256823094712 0.08192611199801392 -0.1508405069143483
                  CHANNELS 3 Yrotation Xrotation Zrotation
                  JOINT leftRingIntermediate
                  {
                    OFFSET 0.381593741461262 -0.0000016975471202052006 6.592486757883709e-8
                    CHANNELS 3 Yrotation Xrotation Zrotation
                    JOINT leftRingDistal
                    {
                      OFFSET 0.22014536669820362 -0.0027420652959939673 -0.005037497035641991
                      CHANNELS 3 Yrotation Xrotation Zrotation
                      End Site
                      {
                        OFFSET 0.22014536669820362 -0.0027420652959939673 -0.005037497035641991
                      }
                    }
                  }
                }
                JOINT leftThumbProximal
                {
                  OFFSET 0.10842212958334652 -0.16573713992498873 -0.07779936144556289
                  CHANNELS 3 Yrotation Xrotation Zrotation
                  JOINT leftThumbIntermediate
                  {
                    OFFSET 0.40720553822379024 -0.01751267955631075 0.31852684427382305
                    CHANNELS 3 Yrotation Xrotation Zrotation
                    JOINT leftThumbDistal
                    {
                      OFFSET 0.23412859218032667 -0.01859690713588802 0.2146635043319005
                      CHANNELS 3 Yrotation Xrotation Zrotation
                      End Site
                      {
                        OFFSET 0.23412859218032667 -0.01859690713588802 0.2146635043319005
                      }
                    }
                  }
                }
              }
            }
          }
        }
        JOINT rightShoulder
        {
          OFFSET -1.1700037144859516 -0.41760703856471126 0
          CHANNELS 3 Yrotation Xrotation Zrotation
          JOINT rightUpperArm
          {
            OFFSET -1.1803910289368023 0 0
            CHANNELS 3 Yrotation Xrotation Zrotation
            JOINT rightLowerArm
            {
              OFFSET -2.440617418222133 0 0
              CHANNELS 3 Yrotation Xrotation Zrotation
              JOINT rightHand
              {
                OFFSET -2.3832181162662343 0 0
                CHANNELS 3 Yrotation Xrotation Zrotation
                JOINT rightIndexProximal
                {
                  OFFSET -0.7310168852843362 0.08192787643494381 0.20404785424302163
                  CHANNELS 3 Yrotation Xrotation Zrotation
                  JOINT rightIndexIntermediate
                  {
                    OFFSET -0.3688846010723953 -0.01066191355993129 -0.014226020535245201
                    CHANNELS 3 Yrotation Xrotation Zrotation
                    JOINT rightIndexDistal
                    {
                      OFFSET -0.22711216276130997 -0.007898902439410271 -0.007580718044857868
                      CHANNELS 3 Yrotation Xrotation Zrotation
                      End Site
                      {
                        OFFSET -0.22711216276130997 -0.007898902439410271 -0.007580718044857868
                      }
                    }
                  }
                }
                JOINT rightLittleProximal
                {
                  OFFSET -0.6782685897119165 0.08192501740206293 -0.3238766118101876
                  CHANNELS 3 Yrotation Xrotation Zrotation
                  JOINT rightLittleIntermediate
                  {
                    OFFSET -0.34904682243945895 -2.664019085329983e-7 3.792712677253007e-8
                    CHANNELS 3 Yrotation Xrotation Zrotation
                    JOINT rightLittleDistal
                    {
                      OFFSET -0.20110609302945537 0.0031260842677420797 0.0038661724369087186
                      CHANNELS 3 Yrotation Xrotation Zrotation
                      End Site
                      {
                        OFFSET -0.20110609302945537 0.0031260842677420797 0.0038661724369087186
                      }
                    }
                  }
                }
                JOINT rightMiddleProximal
                {
                  OFFSET -0.7368168209984411 0.08192485183145659 0.022723294831187846
                  CHANNELS 3 Yrotation Xrotation Zrotation
                  JOINT rightMiddleIntermediate
                  {
                    OFFSET -0.4113687575187084 -9.03141548214137e-8 4.759541079313312e-8
                    CHANNELS 3 Yrotation Xrotation Zrotation
                    JOINT rightMiddleDistal
                    {
                      OFFSET -0.2537822083525749 -9.554208624251714e-8 -1.6364827826187422e-9
                      CHANNELS 3 Yrotation Xrotation Zrotation
                      End Site
                      {
                        OFFSET -0.2537822083525749 -9.554208624251714e-8 -1.6364827826187422e-9
                      }
                    }
                  }
                }
                JOINT rightRingProximal
                {
                  OFFSET -0.7284243957721679 0.08192492753028224 -0.15084062217729294
                  CHANNELS 3 Yrotation Xrotation Zrotation
                  JOINT rightRingIntermediate
                  {
                    OFFSET -0.381595106800805 -2.5662436442530634e-7 2.929475539925619e-8
                    CHANNELS 3 Yrotation Xrotation Zrotation
                    JOINT rightRingDistal
                    {
                      OFFSET -0.22014544912608125 -0.002738002524970362 -0.0050375115645966
                      CHANNELS 3 Yrotation Xrotation Zrotation
                      End Site
                      {
                        OFFSET -0.22014544912608125 -0.002738002524970362 -0.0050375115645966
                      }
                    }
                  }
                }
                JOINT rightThumbProximal
                {
                  OFFSET -0.10842026863657162 -0.16573778435706465 -0.07779917642461898
                  CHANNELS 3 Yrotation Xrotation Zrotation
                  JOINT rightThumbIntermediate
                  {
                    OFFSET -0.40720600760521597 -0.017512298079938038 0.3185267362029824
                    CHANNELS 3 Yrotation Xrotation Zrotation
                    JOINT rightThumbDistal
                    {
                      OFFSET -0.2341289751103648 -0.018594162598156494 0.21466399510514025
                      CHANNELS 3 Yrotation Xrotation Zrotation
                      End Site
                      {
                        OFFSET -0.2341289751103648 -0.018594162598156494 0.21466399510514025
                      }
                    }
                  }
                }
              }
            }
          }
        }
      }
    }
  }
  JOINT leftUpperLeg
  {
    OFFSET -0.8565189721517369 0.4427277044191169 0
    CHANNELS 3 Yrotation Xrotation Zrotation
    JOINT leftLowerLeg
    {
      OFFSET 0 -3.918486704769693 0
      CHANNELS 3 Yrotation Xrotation Zrotation
      JOINT leftFoot
      {
        OFFSET 6.174701361744139e-7 -0.055233446196002234 4.612027801972084
        CHANNELS 3 Yrotation Xrotation Zrotation
        JOINT leftToes
        {
          OFFSET -3.4372540951010944e-7 -0.705284859504459 1.2256624571888697
          CHANNELS 3 Yrotation Xrotation Zrotation
          End Site
          {
            OFFSET -3.4372540951010944e-7 -0.705284859504459 1.2256624571888697
          }
        }
      }
    }
  }
  JOINT rightUpperLeg
  {
    OFFSET 0.8565189732197466 0.44272769569168136 0
    CHANNELS 3 Yrotation Xrotation Zrotation
    JOINT rightLowerLeg
    {
      OFFSET 0 -3.918486692649319 0
      CHANNELS 3 Yrotation Xrotation Zrotation
      JOINT rightFoot
      {
        OFFSET 6.995136552362391e-7 -0.05523244834012664 4.612028499942008
        CHANNELS 3 Yrotation Xrotation Zrotation
        JOINT rightToes
        {
          OFFSET -4.2566694985479714e-7 -0.7052846587611067 1.22566236096697
          CHANNELS 3 Yrotation Xrotation Zrotation
          End Site
          {
            OFFSET -4.2566694985479714e-7 -0.7052846587611067 1.22566236096697
          }
        }
      }
    }
  }
}
MOTION
Frames: 4
Frame Time: 0.03333333333333333
-0.02125183306634426 -0.5117852700948653 -0.08626234531402588 -3.613006093755227 5.004564680867252 8.266993668660804 -1.7951240683155123 6.012183698215922 2.0155875387089037 -5.273980696054478 24.456472207174365 9.51145998082521 0 0 0 -10.007729763105072 9.585947481865068 5.420809891388331 -8.965979743419725 12.272064009729434 -6.347310125809646 0 0 0 0 0 0 -21.609090542428035 -29.488688609131238 19.599904711889483 -1.715473519640611 -50.427422466132406 -74.65336169621602 -125.44658258535328 1.2745983620892094 0.6025977852752674 -3.0640794037708075 -10.259604534547549 20.668037864047783 8.31994740145639 -8.042970198788232 -28.225168483911727 1.5636835517205274 0.6818261192973023 -22.93415366643284 -1.281281483810888e-10 1.793762613445802e-24 1.6042536111691759e-12 -1.982384515385941 2.847118866927414 -40.548790719678856 -1.439547060795794 -0.12193848546709277 -8.124313374312075 -0.000012422866751234024 -0.000010448329551661817 -0.000012935329934841376 0.23227191223992652 -0.8104748635969424 -32.06972815925217 -1.4620434831640612 -0.4158403750588075 -27.13282528153134 1.139979627027678e-10 6.3611093629270335e-15 -1.43444452663829e-12 1.1546665116622632 -1.5098968242180455 -35.10905321310849 -1.1032329739181863 -0.3904420345688614 -21.9780436838755 0 0 0 19.35560687614457 -46.83509735077277 -18.515386824401816 14.852012711434995 5.67953875958756 3.109162038696504 0.00001169524703297903 -0.000005629942893646748 -0.000011539157418987284 25.04957625976959 -27.74400386891475 -24.08296985546946 -14.20699781981342 -58.65940322849524 58.53273914098304 123.84830658195891 -2.473677457758729 -0.615008632188317 2.1576674673455583 -26.640651173752744 -6.319980047581697 -6.779942822519641 -3.9993913054507444 19.12634439244826 -1.3574637581976434 0.3007703356098896 30.442211130090065 0.0000021377813822646306 -0.000002503579978623371 -0.0000043376361999144435 -5.609466623740625 2.2516837570113193 33.6637611619887 1.4402070387464396 -0.3206291625812786 11.780547930298075 0.000002582452645836173 -0.0000011012822742303388 0.00001260242794277522 -4.375294391938218 1.1053211254556337 25.53171473186004 1.298358073850481 -0.31206144012302245 19.72259163310121 1.215836204053751e-9 -3.180554491887685e-15 -1.6036856771618462e-11 -5.844818642142083 -0.6001050424633629 31.239293060684634 0.4459531542992156 1.3738294249104048 14.968861239957922 0.0000055923600346420515 -0.0000067498079529923256 0.00001014127666538042 -12.079341000751835 -28.060793149986246 6.058262284358227 -1.2872788014061183 0.9412129437069537 0.23099674750008775 0.000007940946749194555 -0.0000043695247973729345 -0.000004501439346008556 27.67097538590423 -14.360558017215878 -4.414426480330398 -0.3890307707416523 29.26545386280876 -1.2253408557966654 -8.577661171071723 -17.129949738057892 -0.3765706499084338 5.230898763894069 -0.858090760157106 -3.12344195004055 5.165933199473926 -32.16653139871989 -14.238519826297008 0.3545703554701433 35.696968220485374 1.6087349902043107 -6.878488622409434 -7.728672490032789 3.641003139320046 2.9403316856650297 -0.6546240011832606 -0.541751765930929
-0.020489295944571495 -0.5122010720968184 -0.08467987179756165 -3.818297910046591 4.935059339008944 8.285109719806686 -1.7931971148619315 5.9349138201852325 2.014286439983289 -5.288772936262491 24.148355405350635 9.512711954275774 0 0 0 -10.016321227308026 9.544094204643738 5.427179451204984 -8.954026524846828 12.303753816312723 -6.36035671930553 0 0 0 0 0 0 -21.48133550466801 -29.216750209474874 19.228907365663897 -2.18685556279805 -50.84716789714602 -74.12617377515204 -125.43186723932523 1.2791162666780636 0.6027369343521035 -2.938399736118011 -10.22862325766877 20.645490593799792 8.319962758704202 -8.042953815937972 -28.225170003370685 1.5636660546395234 0.6818208361987967 -22.93416286071054 -1.281281483810888e-10 1.793762613445802e-24 1.6042536111691759e-12 -1.982381738854973 2.8471203628778574 -40.548800361792395 -1.439551541702884 -0.12194203397184644 -8.124309148277666 -0.000012422866751234024 -0.000010448329551661817 -0.000012935329934841376 0.23228383948557135 -0.8104591205703549 -32.06973105350164 -1.4620459370288765 -0.4158376802647626 -27.13283291774125 1.139979627027678e-10 6.3611093629270335e-15 -1.43444452663829e-12 1.1546717417799746 -1.509885294270521 -35.10905797264814 -1.1032382024339311 -0.39044670375190255 -21.97804526736752 0 0 0 19.355583072793745 -46.83508237448892 -18.515369050881212 14.852035153471732 5.679522028870194 3.1091680357543203 0.00001169524703297903 -0.000005629942893646748 -0.000011539157418987284 24.919378034670927 -27.949094635262426 -23.594333556154716 -12.980855524179598 -58.82528519007581 57.407200611552256 123.6576476691436 -2.473120491896069 -0.6164560629403758 2.124208095225519 -26.637143810495697 -6.36276997472481 -6.779957674514321 -3.999396012668871 19.126333567395633 -1.3574640782773255 0.30077022888671334 30.442218749101453 0.0000021377813822646306 -0.000002503579978623371 -0.0000043376361999144435 -5.609490433308159 2.251685038661374 33.66378106850482 1.4402169608852933 -0.32062110496633106 11.780528845371407 0.000002582452645836173 -0.0000011012822742303388 0.00001260242794277522 -4.375302906377785 1.105333507477516 25.53169945873468 1.2983564734121698 -0.31207811563689764 19.72261483432411 1.215836204053751e-9 -3.180554491887685e-15 -1.6036856771618462e-11 -5.844829182517097 -0.6000957571656709 31.239291289473393 0.4459548889730725 1.373814479575534 14.968889405914402 0.0000055923600346420515 -0.0000067498079529923256 0.00001014127666538042 -12.079357084163165 -28.06078734495737 6.058281045335257 -1.2872806154619627 0.9412023768323673 0.2309851934103798 0.000007940946749194555 -0.0000043695247973729345 -0.000004501439346008556 27.641530280401906 -14.238547240987097 -4.398847933595627 -0.39255490438687146 29.269529207010105 -1.2273213353604946 -8.351660748354142 -17.180223129708086 -0.42851889482755884 5.010431725048322 -0.8528497133374987 -2.9983946683804574 5.162929638742705 -32.12555968130637 -14.236516873001099 0.3567345037017399 35.72646887441653 1.6112088885896814 -6.677478305563436 -7.744327198190425 3.5954752414173465 2.7357722909455657 -0.5931233568515607 -0.4901245724542794
-0.020853139460086823 -0.5143096460103926 -0.0811702162027359 -4.268040014723065 4.827128710769684 8.323500849577718 -1.7794119716573316 5.766089435127762 2.000994113643778 -5.286387870780555 23.47120666260175 9.478364864488626 0 0 0 -10.024580210906636 9.407385535052503 5.379408297542188 -8.910185407723295 12.417614281615837 -6.337956122641966 0 0 0 0 0 0 -21.234042350118003 -28.64375585282921 18.44611663758388 -3.221843768125489 -51.702894700109084 -72.91867176915552 -125.4155226670561 1.297233333211907 0.602849554857275 -2.6748231301745293 -10.176615445325453 20.618029191478787 8.319941429193028 -8.042987443894486 -28.225162406075455 1.5636926203294694 0.6818288942581359 -22.93416443339308 -1.281281483810888e-10 1.793762613445802e-24 1.6042536111691759e-12 -1.9823853697031601 2.847103693715883 -40.548817423137976 -1.439541939759098 -0.12193876561220487 -8.124301541415505 -0.000012422866751234024 -0.000010448329551661817 -0.000012935329934841376 0.23226868361190733 -0.810502026988724 -32.06974807078732 -1.4620301664952915 -0.41582879544875967 -27.132835957090187 1.139979627027678e-10 6.3611093629270335e-15 -1.43444452663829e-12 1.1546714215686866 -1.5099107028586656 -35.1090456588501 -1.1032430041320478 -0.3904397133178647 -21.97804526736752 0 0 0 19.35558472732275 -46.835087366583075 -18.515375369862074 14.852031836187424 5.679523315848435 3.1091547565547777 0.00001169524703297903 -0.000005629942893646748 -0.000011539157418987284 24.651413846460176 -28.374076554502842 -22.57518237527676 -10.36271354746595 -59.10170735058554 54.985846891869635 123.2607285174415 -2.465631705845429 -0.6195470300844568 2.104540109309633 -26.642956999016576 -6.501166971837863 -6.779949600723266 -3.999406710891986 19.12633518462194 -1.357468772779319 0.30078981258957055 30.442211130090065 0.0000021377813822646306 -0.000002503579978623371 -0.0000043376361999144435 -5.609473426474405 2.251677562369403 33.66378865220849 1.4402020243321472 -0.3206233194763988 11.780529681174977 0.000002582452645836173 -0.0000011012822742303388 0.00001260242794277522 -4.375291411884324 1.1053138670290372 25.531723909509328 1.2983528457519895 -0.3120659758627939 19.722596455307848 1.215836204053751e-9 -3.180554491887685e-15 -1.6036856771618462e-11 -5.844823313741705 -0.6001101120224545 31.23930359218411 0.44596132060998095 1.3738244075479735 14.968867072545153 0.0000055923600346420515 -0.0000067498079529923256 0.00001014127666538042 -12.079350461582264 -28.060789279966958 6.058277196929819 -1.28728072217113 0.9412142245402391 0.23101027619170814 0.000007940946749194555 -0.0000043695247973729345 -0.000004501439346008556 27.605693807904455 -14.038666014994357 -4.371773063344757 -0.3987328831618846 29.322439266890594 -1.2325104390165165 -7.877789217131312 -17.305335056947307 -0.5478787769446392 4.550681058675684 -0.8424800311686015 -2.734359796118112 5.210315188962495 -32.0945587656385 -14.23407793786185 0.364032193395651 35.83164391133078 1.6197999573887205 -6.278066251642647 -7.7958223650881475 3.494613175710585 2.303673576839278 -0.4673216018000939 -0.38502562754287994
-0.024207405745983124 -0.5184476388692794 -0.07678551971912384 -4.780396674277548 4.750318924594543 8.373815075323764 -1.7507388458683069 5.57661323072677 1.9716294256889868 -5.235041438139417 22.705919277954138 9.391387014211155 0 0 0 -10.032938346333507 9.179277717797744 5.173662995048396 -8.86640537635898 12.610031038167204 -6.207018941746026 0 0 0 0 0 0 -21.034895180577855 -28.015699464156906 17.569655706698953 -4.436123843350992 -52.57111623154432 -71.39004387839945 -125.42563804297276 1.3313747988464655 0.6027753252868209 -2.4182916741795006 -10.158573617445814 20.679971718570705 8.319957639621732 -8.042958127214293 -28.225170003370685 1.5636861122689425 0.6818178477794425 -22.93416443339308 -1.281281483810888e-10 1.793762613445802e-24 1.6042536111691759e-12 -1.9823768265309298 2.847131903067057 -40.54879554073559 -1.4395632774118459 -0.12194442187542154 -8.124333296697168 -0.000012422866751234024 -0.000010448329551661817 -0.000012935329934841376 0.23227551442821062 -0.810470807766358 -32.069743363108344 -1.4620271791817387 -0.41583543904991405 -27.13283291774125 1.139979627027678e-10 6.3611093629270335e-15 -1.43444452663829e-12 1.1546780392686222 -1.5098923403495563 -35.10905797264814 -1.1032424706100357 -0.3904377656015117 -21.978034488282194 0 0 0 19.35562380771343 -46.835067398209254 -18.51539428247944 14.852022663288773 5.679518596928229 3.109160111070763 0.00001169524703297903 -0.000005629942893646748 -0.000011539157418987284 24.34925381519658 -28.826048077001424 -21.505636407182298 -7.508917538983238 -59.311036945397234 52.38188450297956 122.82404495415369 -2.44740396327198 -0.623092300887701 2.12035606127401 -26.64133890466799 -6.6300550484094565 -6.779944097328731 -3.9993981523134834 19.12634439244826 -1.3574695196319073 0.3007766055964954 30.44222169343352 0.0000021377813822646306 -0.000002503579978623371 -0.0000043376361999144435 -5.609465348228024 2.2516811937112124 33.66378865220849 1.440202877849475 -0.3206200377325637 11.780527312319707 0.000002582452645836173 -0.0000011012822742303388 0.00001260242794277522 -4.375287580386425 1.1053285973653841 25.53171319077335 1.2983488980041349 -0.3120579982969619 19.722596455307848 1.215836204053751e-9 -3.180554491887685e-15 -1.6036856771618462e-11 -5.844818642142083 -0.6000975181704044 31.23931297479957 0.4459596393107072 1.3738345490252393 14.968847156979518 0.0000055923600346420515 -0.0000067498079529923256 0.00001014127666538042 -12.07934221927401 -28.060775734900552 6.058274936894659 -1.2872697311268566 0.9412080338460307 0.23099053017237192 0.000007940946749194555 -0.0000043695247973729345 -0.000004501439346008556 27.573882198941206 -13.8845585899794 -4.350187194288263 -0.40339290013923895 29.44071930515994 -1.2393705641715678 -7.3380053931750515 -17.471702393402886 -0.7003467289822207 4.074417663607249 -0.8365478019767477 -2.4549269044100055 5.328375530205702 -32.12947132647322 -14.239891036371255 0.37718324179108204 36.01971107422821 1.6352876377316297 -5.8676577790891775 -7.888205751484736 3.3750939597298832 1.8309151248309874 -0.3360449125815305 -0.2759867013337802
